<svg xmlns="http://www.w3.org/2000/svg" width="143.817" height="53.481" viewBox="0 0 143.817 53.481">
  <g id="Group_2629" data-name="Group 2629" transform="translate(-736.63 -166.364)">
    <path id="Path_5790" data-name="Path 5790" d="M816,265.649a19.511,19.511,0,1,0-19.1-19.913A19.511,19.511,0,0,0,816,265.649m8.815-36.9c8.063,3.9,10.833,14.847,6.189,24.453s-14.948,14.237-23.011,10.337-10.833-14.845-6.188-24.452,14.948-14.237,23.009-10.339" transform="translate(-53.035 -53.037)" fill="#d74190"/>
    <path id="Path_5791" data-name="Path 5791" d="M831.128,282.2A15.647,15.647,0,1,0,837,260.864a15.647,15.647,0,0,0-5.874,21.336m29.041-9.081c.627,7.155-5.779,13.56-14.305,14.305s-15.944-4.452-16.568-11.605,5.777-13.559,14.3-14.305,15.945,4.451,16.569,11.605" transform="translate(-81.361 -81.364)" fill="#6a4f33"/>
    <path id="Path_5792" data-name="Path 5792" d="M813.446,252.525a21.216,21.216,0,1,0-28.513-9.344,21.216,21.216,0,0,0,28.513,9.344M803.039,212.6c9.732-.381,17.988,8.712,18.442,20.3s-7.067,21.3-16.8,21.685-17.988-8.71-18.441-20.306,7.067-21.3,16.8-21.684" transform="translate(-40.491 -40.492)" fill="#f16724"/>
    <path id="Path_5793" data-name="Path 5793" d="M823.845,277.034a17.4,17.4,0,1,0-7.46-23.455,17.4,17.4,0,0,0,7.46,23.455m21.572-26.078c4.922,6.292,2.834,16.148-4.664,22.013s-17.565,5.519-22.487-.774-2.835-16.147,4.664-22.01,17.566-5.52,22.487.771" transform="translate(-68.471 -68.471)" fill="#e2bf4f"/>
    <path id="Path_5794" data-name="Path 5794" d="M804.48,224.237A24.026,24.026,0,1,0,772,234.218a24.024,24.024,0,0,0,32.478-9.981m-35.7-30.133c8.754-6.709,22.329-3.692,30.323,6.738s7.379,24.322-1.374,31.032-22.327,3.691-30.322-6.739-7.379-24.322,1.373-31.031" transform="translate(-19.88 -19.883)" fill="#7fb041"/>
    <path id="Path_5795" data-name="Path 5795" d="M788.189,183.168a26.734,26.734,0,1,0-14.879,34.755,26.732,26.732,0,0,0,14.879-34.755m-51.261,8.65c.6-12.257,12.921-21.615,27.524-20.9s25.961,11.223,25.365,23.479-12.92,21.614-27.525,20.9-25.96-11.223-25.363-23.479" transform="translate(0)" fill="#3182c0"/>
    <g id="Group_732" data-name="Group 732" transform="translate(808.376 169.074)">
      <rect id="Rectangle_1586" data-name="Rectangle 1586" width="6.117" height="32.688" transform="translate(0 0.791)" fill="#fff"/>
      <path id="Path_5796" data-name="Path 5796" d="M875.114,700.319a18.505,18.505,0,0,1-3.035,10.645l3.875,3.829-4.342,4.344-3.969-3.924a16.959,16.959,0,0,1-9.293,2.43c-11.627,0-16.762-8.452-16.809-16.95-.048-8.546,5.322-17.091,16.809-17.091s16.623,8.311,16.763,16.717m-27.5.512c.093,5.37,3.641,11.115,10.74,11.115,7.377,0,10.927-6.212,10.694-11.814-.234-5.278-2.989-10.975-10.694-10.975s-10.832,6.166-10.74,11.674" transform="translate(-831.173 -683.602)" fill="#fff"/>
      <path id="Path_5797" data-name="Path 5797" d="M1011.067,687.3h25.122v2.9l-16.951,23.954h16.951v5.837h-25.543v-3.548l16.579-23.347h-16.158Z" transform="translate(-964.132 -686.514)" fill="#fff"/>
      <path id="Path_5798" data-name="Path 5798" d="M800.556,870.974a3.068,3.068,0,0,0-2.539-1.193c-1.5,0-2.218.626-2.218,1.423,0,.933,1.1,1.191,2.388,1.345,2.233.276,4.314.857,4.314,3.411,0,2.386-2.112,3.412-4.5,3.412-2.189,0-3.871-.674-4.665-2.633l1.681-.871a3.053,3.053,0,0,0,3.015,1.7c1.27,0,2.461-.443,2.461-1.607,0-1.01-1.054-1.421-2.478-1.575-2.187-.26-4.207-.842-4.207-3.243,0-2.2,2.173-3.107,4.145-3.121,1.668,0,3.4.476,4.209,2.126Z" transform="translate(-793.273 -828.602)" fill="#fff"/>
      <path id="Path_5799" data-name="Path 5799" d="M843.71,874.158l2.846-4.422h2.432v.092l-4.268,6.2v4.422H842.7v-4.422l-4.114-6.2v-.092h2.4Z" transform="translate(-828.849 -829.951)" fill="#fff"/>
      <path id="Path_5800" data-name="Path 5800" d="M895.937,870.974a3.075,3.075,0,0,0-2.541-1.193c-1.5,0-2.218.626-2.218,1.423,0,.933,1.1,1.191,2.387,1.345,2.232.276,4.313.857,4.313,3.411,0,2.386-2.112,3.412-4.5,3.412-2.189,0-3.871-.674-4.667-2.633l1.68-.871a3.053,3.053,0,0,0,3.015,1.7c1.27,0,2.464-.443,2.464-1.607,0-1.01-1.056-1.421-2.479-1.575-2.186-.26-4.205-.842-4.205-3.243,0-2.2,2.171-3.107,4.144-3.121,1.668,0,3.4.476,4.208,2.126Z" transform="translate(-868.264 -828.602)" fill="#fff"/>
      <path id="Path_5801" data-name="Path 5801" d="M939.512,871.573h-3.4v-1.836h8.811v1.836h-3.4v8.873h-2.018Z" transform="translate(-905.532 -829.951)" fill="#fff"/>
      <path id="Path_5802" data-name="Path 5802" d="M991.111,880.446H983.1V869.736h8.015v1.958H985.1v2.463h5.8v1.882h-5.8v2.417h6.012Z" transform="translate(-942.471 -829.951)" fill="#fff"/>
      <path id="Path_5803" data-name="Path 5803" d="M1037.45,872.752l-3.488,4.65h-.4l-3.412-4.665v7.785h-2.018V869.816h2.325l3.349,4.6,3.349-4.6h2.31v10.706h-2.019Z" transform="translate(-977.883 -830.013)" fill="#fff"/>
      <path id="Path_5804" data-name="Path 5804" d="M1094.572,870.974a3.073,3.073,0,0,0-2.541-1.193c-1.5,0-2.217.626-2.217,1.423,0,.933,1.1,1.191,2.386,1.345,2.235.276,4.313.857,4.313,3.411,0,2.386-2.111,3.412-4.5,3.412-2.189,0-3.872-.674-4.666-2.633l1.681-.871a3.052,3.052,0,0,0,3.015,1.7c1.27,0,2.463-.443,2.463-1.607,0-1.01-1.056-1.421-2.479-1.575-2.185-.26-4.2-.842-4.2-3.243,0-2.2,2.172-3.107,4.144-3.121,1.668,0,3.4.476,4.209,2.126Z" transform="translate(-1024.443 -828.602)" fill="#fff"/>
    </g>
  </g>
<script xmlns=""/><script xmlns=""/><script xmlns=""/><script xmlns=""/><script xmlns=""/><script xmlns=""/><script xmlns=""/><script xmlns=""/><script xmlns=""/><script xmlns=""/><script xmlns=""/><script xmlns=""/><script xmlns=""/><script xmlns=""/><script xmlns=""/><script xmlns=""/><script xmlns=""/><script xmlns=""/><script xmlns=""/></svg>